<?xml version="1.0" standalone="no"?>
<!DOCTYPE svg PUBLIC "-//W3C//DTD SVG 20010904//EN"
 "http://www.w3.org/TR/2001/REC-SVG-20010904/DTD/svg10.dtd">
<svg version="1.0" xmlns="http://www.w3.org/2000/svg"
 width="258.000000pt" height="144.000000pt" viewBox="0 0 258.000000 144.000000"
 preserveAspectRatio="xMidYMid meet">

<g transform="translate(0.000000,144.000000) scale(0.100000,-0.100000)"
fill="#000000" stroke="none">
<path d="M0 720 l0 -720 1290 0 1290 0 0 720 0 720 -1290 0 -1290 0 0 -720z
m990 651 c30 -6 80 -24 110 -39 49 -25 55 -31 53 -58 -3 -41 14 -101 32 -107
8 -4 24 -29 36 -56 12 -28 26 -51 31 -51 12 0 -2 70 -20 98 -13 19 -13 29 -2
62 7 22 18 40 24 40 24 0 56 -31 54 -54 -2 -24 11 -61 50 -145 15 -30 25 -65
24 -78 -2 -20 2 -24 21 -21 19 3 23 11 29 58 5 34 3 66 -4 83 -12 30 -3 50 12
27 46 -71 64 -189 42 -263 -6 -17 -18 -67 -28 -109 -11 -50 -22 -78 -30 -78
-19 0 -94 69 -94 86 0 7 -6 17 -14 21 -8 4 -22 26 -31 48 -9 22 -19 34 -22 28
-6 -16 -33 -17 -33 -3 0 6 7 13 15 16 26 10 17 34 -20 51 -21 10 -35 24 -35
35 0 25 -59 100 -141 177 -39 36 -102 96 -141 134 -38 37 -75 67 -80 67 -6 0
-17 -8 -24 -17 -13 -17 -15 -17 -25 0 -5 9 -17 17 -24 17 -8 0 -15 7 -15 15 0
17 12 19 26 5 7 -7 17 -4 32 9 25 21 97 22 192 2z m-80 -141 c0 -5 -4 -10 -10
-10 -5 0 -10 5 -10 10 0 6 5 10 10 10 6 0 10 -4 10 -10z m750 -80 c0 -5 -4
-10 -10 -10 -5 0 -10 5 -10 10 0 6 5 10 10 10 6 0 10 -4 10 -10z m98 -183
c-16 -13 -28 -29 -28 -37 0 -26 -39 -84 -83 -122 -22 -20 -38 -40 -34 -44 4
-4 17 2 30 13 35 32 87 55 111 49 17 -4 33 4 63 32 23 20 59 51 81 67 22 17
43 38 45 48 4 13 13 18 29 15 20 -3 23 -8 22 -45 -1 -37 -7 -48 -47 -86 -26
-24 -47 -48 -47 -55 0 -19 40 -25 59 -8 10 9 21 16 26 16 5 0 17 7 26 16 17
15 20 15 45 0 15 -11 32 -15 42 -10 9 4 29 6 43 5 20 -2 34 7 55 34 33 43 54
34 34 -15 -12 -28 -11 -33 10 -55 l23 -25 -26 0 c-14 0 -28 -4 -32 -10 -3 -5
-18 -9 -33 -10 -86 -1 -235 -25 -259 -40 -18 -12 -26 -12 -47 -1 -22 12 -29
11 -61 -8 -20 -11 -43 -21 -52 -21 -9 0 -26 -9 -37 -19 -15 -14 -40 -21 -90
-25 -124 -9 -142 35 -65 158 22 34 48 77 58 97 11 20 31 39 43 42 13 4 39 20
58 36 19 17 42 30 50 30 10 0 5 -8 -12 -22z m-561 -173 c-3 -3 -12 -4 -19 -1
-8 3 -5 6 6 6 11 1 17 -2 13 -5z m93 -18 c0 -8 -4 -18 -10 -21 -5 -3 -10 3
-10 14 0 12 5 21 10 21 6 0 10 -6 10 -14z m1027 -2 c-3 -3 -12 -4 -19 -1 -8 3
-5 6 6 6 11 1 17 -2 13 -5z m-917 -125 c0 -5 -7 -9 -15 -9 -15 0 -20 12 -9 23
8 8 24 -1 24 -14z"/>
<path d="M1070 1287 c0 -30 24 -62 38 -53 19 11 14 54 -7 66 -28 14 -31 13
-31 -13z"/>
</g>
</svg>
